<?xml version="1.0" standalone="no"?>
<!DOCTYPE svg PUBLIC "-//W3C//DTD SVG 20010904//EN"
 "http://www.w3.org/TR/2001/REC-SVG-20010904/DTD/svg10.dtd">
<svg version="1.0" xmlns="http://www.w3.org/2000/svg"
 width="1500.000000pt" height="1500.000000pt" viewBox="0 0 1500.000000 1500.000000"
 preserveAspectRatio="xMidYMid meet">
<metadata>
Created by potrace 1.11, written by Peter Selinger 2001-2013
</metadata>
<g transform="translate(0.000000,1500.000000) scale(0.100000,-0.100000)"
fill="#000000" stroke="none">
<path d="M7605 12709 c-650 -37 -1310 -232 -1876 -554 -640 -365 -1189 -902
-1562 -1525 -302 -506 -490 -1052 -562 -1632 -22 -181 -22 -2843 0 -3024 39
-319 123 -667 226 -943 l42 -112 96 93 c522 506 1362 966 2256 1238 94 28 336
94 540 146 1300 332 2151 671 2840 1129 973 648 1488 1499 1644 2716 17 134
28 265 45 531 5 66 4 67 -45 138 -149 217 -285 379 -492 588 -654 660 -1479
1069 -2394 1186 -247 32 -493 40 -758 25z m735 -1983 c353 -62 667 -192 930
-387 86 -63 230 -195 230 -211 0 -15 -83 -193 -132 -283 -140 -255 -316 -485
-547 -715 -291 -290 -542 -470 -911 -654 -353 -175 -558 -244 -1105 -371 -359
-83 -914 -241 -1292 -369 l-163 -55 0 344 c0 253 4 375 15 462 60 458 244 885
543 1263 91 115 296 321 412 414 377 301 864 511 1315 565 50 6 101 13 115 15
64 11 500 -3 590 -18z"/>
<path d="M9906 5540 c-72 -13 -170 -65 -225 -120 -27 -27 -80 -102 -119 -167
-243 -409 -578 -697 -1008 -866 -349 -137 -765 -172 -1139 -95 -428 87 -850
339 -1145 682 -40 47 -78 86 -84 86 -23 0 -337 -141 -536 -241 -451 -226 -869
-508 -1148 -773 l-92 -88 30 -42 c74 -100 215 -262 345 -395 593 -608 1328
-1010 2140 -1170 597 -118 1214 -101 1820 50 1038 259 1951 910 2545 1815 110
167 124 206 118 328 -5 114 -42 201 -116 273 -64 64 -1062 673 -1147 701 -73
25 -173 34 -239 22z"/>
</g>
</svg>
